<svg width="13" height="13" viewBox="0 0 13 13" fill="none" xmlns="http://www.w3.org/2000/svg">
<path id="Vector" d="M8.96967 2.41787L4.23508 2.41787C4.11119 2.42224 3.98768 2.40162 3.87194 2.35723C3.75619 2.31283 3.65057 2.24558 3.56138 2.15948C3.47219 2.07338 3.40125 1.9702 3.35281 1.8561C3.30436 1.74199 3.27939 1.61929 3.27939 1.49532C3.27939 1.37135 3.30436 1.24866 3.35281 1.13455C3.40125 1.02044 3.47219 0.917261 3.56138 0.831163C3.65057 0.745064 3.75619 0.677811 3.87194 0.633418C3.98768 0.589025 4.11119 0.5684 4.23508 0.572772L11.1977 0.572773C11.4423 0.572924 11.6769 0.670171 11.8499 0.84315C12.0229 1.01613 12.1201 1.25069 12.1203 1.49532L12.1203 8.45796C12.1246 8.58185 12.104 8.70535 12.0596 8.8211C12.0152 8.93684 11.948 9.04246 11.8619 9.13165C11.7758 9.22084 11.6726 9.29178 11.5585 9.34023C11.4444 9.38868 11.3217 9.41365 11.1977 9.41365C11.0737 9.41365 10.951 9.38868 10.8369 9.34023C10.7228 9.29178 10.6196 9.22084 10.5336 9.13165C10.4475 9.04246 10.3802 8.93684 10.3358 8.8211C10.2914 8.70535 10.2708 8.58185 10.2752 8.45796L10.2752 3.72337L1.84167 12.1569C1.66855 12.33 1.43375 12.4272 1.18892 12.4272C0.944095 12.4272 0.709295 12.33 0.536176 12.1569C0.363057 11.9837 0.2658 11.7489 0.2658 11.5041C0.2658 11.2593 0.363057 11.0245 0.536176 10.8514L8.96967 2.41787Z" fill="black"/>
</svg>
